<?xml version="1.0" encoding="iso-8859-1"?>
<!-- Generator: Adobe Illustrator 19.0.0, SVG Export Plug-In . SVG Version: 6.00 Build 0)  -->
<svg version="1.1" id="Capa_1" xmlns="http://www.w3.org/2000/svg" xmlns:xlink="http://www.w3.org/1999/xlink" x="0px" y="0px"
	 viewBox="0 0 480 480" style="enable-background:new 0 0 480 480;" xml:space="preserve">
<path style="fill:#FDB62F;" d="M40,8h192c17.673,0,32,14.327,32,32v400c0,17.673-14.327,32-32,32H40c-17.673,0-32-14.327-32-32V40
	C8,22.327,22.327,8,40,8z"/>
<path style="fill:#87CED9;" d="M48,48h176v112H48V48z"/>
<circle style="fill:#FA962A;" cx="136" cy="288" r="96"/>
<path style="fill:#FFA83D;" d="M254.968,273.032c8.657,65.314-37.273,125.279-102.588,133.936c-10.404,1.379-20.944,1.379-31.348,0
	L56,472h176c17.673,0,32-14.327,32-32c0,0,0,0,0,0V264L254.968,273.032z"/>
<path style="fill:#FDB62F;" d="M198.225,225.776L198.225,225.776c6.248,6.248,6.248,16.379,0,22.628L96.401,350.228
	c-6.248,6.248-16.379,6.248-22.628,0l0,0c-6.248-6.248-6.248-16.379,0-22.628l101.824-101.824
	C181.846,219.528,191.977,219.528,198.225,225.776z"/>
<g>
	<circle style="fill:#DE4C3C;" cx="48" cy="424" r="16"/>
	<circle style="fill:#DE4C3C;" cx="104" cy="424" r="16"/>
	<circle style="fill:#DE4C3C;" cx="160" cy="424" r="16"/>
	<circle style="fill:#DE4C3C;" cx="216" cy="424" r="16"/>
	<g>
		<path id="SVGCleanerId_0" style="fill:#DE4C3C;" d="M40,184h24v16H40V184z"/>
	</g>
	<g>
		<path id="SVGCleanerId_1" style="fill:#DE4C3C;" d="M208,184h24v16h-24V184z"/>
	</g>
</g>
<path style="fill:#87CED9;" d="M432,0h16v72h-16V0z"/>
<path style="fill:#2A7DB8;" d="M480,136h-24V96l-8-24h-16l-8,24v40h-24v16h24v200h32V152h24V136z"/>
<path style="fill:#87CED9;" d="M336,0h16v72h-16V0z"/>
<g>
	<path style="fill:#DE4C3C;" d="M384,136h-24V96l-8-24h-16l-8,24v40h-24v16h24v200h32V152h24V136z"/>
	<path style="fill:#DE4C3C;" d="M328,416h-40v-16h40c4.418,0,8-3.582,8-8v-40h16v40C352,405.255,341.255,416,328,416z"/>
</g>
<path style="fill:#2A7DB8;" d="M416,448H288v-16h128c8.837,0,16-7.163,16-16v-64h16v64C448,433.673,433.673,448,416,448z"/>
<path style="fill:#71C4D1;" d="M88,160h136V48h-24L88,160z"/>
<g>
	<path style="fill:#59B3C2;" d="M184,120h16v16h-16V120z"/>
	<path style="fill:#59B3C2;" d="M152,120h16v16h-16V120z"/>
	<path style="fill:#59B3C2;" d="M120,120h16v16h-16V120z"/>
	<path style="fill:#59B3C2;" d="M88,120h16v16H88V120z"/>
</g>
<path d="M40,480h192c22.08-0.026,39.974-17.92,40-40V40c-0.026-22.08-17.92-39.974-40-40H40C17.92,0.026,0.026,17.92,0,40v400
	C0.026,462.08,17.92,479.974,40,480z M16,40c0-13.255,10.745-24,24-24h192c13.255,0,24,10.745,24,24v400c0,13.255-10.745,24-24,24
	H40c-13.255,0-24-10.745-24-24V40z"/>
<path d="M48,168h176c4.418,0,8-3.582,8-8V48c0-4.418-3.582-8-8-8H48c-4.418,0-8,3.582-8,8v112C40,164.418,43.582,168,48,168z M56,56
	h160v96H56V56z"/>
<path d="M68.112,355.88c0.216,0.216,0.48,0.368,0.704,0.576c37.46,37.456,98.192,37.452,135.648-0.008s37.452-98.192-0.008-135.648
	c-0.208-0.232-0.352-0.488-0.576-0.712s-0.48-0.368-0.712-0.576c-37.469-37.454-98.206-37.441-135.66,0.028
	s-37.441,98.206,0.028,135.66C67.744,355.4,67.896,355.664,68.112,355.88L68.112,355.88z M203.888,254.056
	c1.036-1.051,1.971-2.197,2.792-3.424c20.681,38.994,5.836,87.37-33.158,108.051c-23.421,12.422-51.478,12.421-74.898-0.003
	c1.231-0.821,2.38-1.759,3.432-2.8L203.888,254.056z M192.368,231.296l0.328,0.336c2.957,3.134,2.9,8.047-0.128,11.112
	L90.744,344.568c-3.059,3.022-7.96,3.086-11.096,0.144l-0.36-0.36c-2.942-3.136-2.878-8.037,0.144-11.096l101.824-101.824
	C184.319,228.402,189.232,228.342,192.368,231.296L192.368,231.296z M56,288c-0.05-44.134,35.688-79.952,79.822-80.002
	c13.09-0.015,25.983,3.186,37.546,9.322c-1.227,0.824-2.373,1.761-3.424,2.8L68.112,321.944c-1.036,1.051-1.971,2.197-2.792,3.424
	C59.195,313.865,55.994,301.032,56,288z"/>
<circle cx="48" cy="424" r="16"/>
<circle cx="104" cy="424" r="16"/>
<circle cx="160" cy="424" r="16"/>
<circle cx="216" cy="424" r="16"/>
<path id="SVGCleanerId_0_1_" d="M40,184h24v16H40V184z"/>
<path id="SVGCleanerId_1_1_" d="M208,184h24v16h-24V184z"/>
<path d="M464,96c0.001-0.859-0.137-1.713-0.408-2.528l-8-24c-1.089-3.268-4.147-5.473-7.592-5.472V0h-16v64
	c-3.445-0.001-6.503,2.204-7.592,5.472l-8,24c-0.271,0.815-0.409,1.669-0.408,2.528v40h-16v16h16v200c0,4.418,3.582,8,8,8h8v56
	c0,8.837-7.163,16-16,16H288v16h128c17.673,0,32-14.327,32-32v-56h8c4.418,0,8-3.582,8-8V152h16v-16h-16V96z M448,344h-16V152h16
	V344z M448,136h-16V97.296L437.768,80h4.464L448,97.296V136z"/>
<path d="M184,120h16v16h-16V120z"/>
<path d="M152,120h16v16h-16V120z"/>
<path d="M120,120h16v16h-16V120z"/>
<path d="M328,400h-40v16h40c13.255,0,24-10.745,24-24v-32h8c4.418,0,8-3.582,8-8V152h16v-16h-16V96
	c0.001-0.859-0.137-1.713-0.408-2.528l-8-24c-1.089-3.268-4.147-5.473-7.592-5.472V0h-16v64c-3.445-0.001-6.503,2.204-7.592,5.472
	l-8,24c-0.271,0.815-0.409,1.669-0.408,2.528v40h-16v16h16v200c0,4.418,3.582,8,8,8h8v32C336,396.418,332.418,400,328,400z
	 M336,97.296L341.768,80h4.464L352,97.296V136h-16V97.296z M336,152h16v192h-16V152z"/>
<path d="M88,120h16v16H88V120z"/>
<g>
</g>
<g>
</g>
<g>
</g>
<g>
</g>
<g>
</g>
<g>
</g>
<g>
</g>
<g>
</g>
<g>
</g>
<g>
</g>
<g>
</g>
<g>
</g>
<g>
</g>
<g>
</g>
<g>
</g>
</svg>
